# xmcd
#
# Track frame offsets: 
#        180
#        12894
#        26674
#        38885
#        52121
#        66977
#        77347
#        89101
#        103671
#        117900
#        128267
#        142100
#        154524
#        164405
#        175748
#        188554
#        199822
#        213630
#        226967
#        238804
#
# Disc length: 3353 seconds
#
# Revision: 4
# Processed by: cddbd v1.5.2PL0 Copyright (c) Steve Scherf et al.
# Submitted via: ExactAudioCopyFreeDBPlugin 1.0
#
DISCID=120d1714
DTITLE=Various Artist - Golden Greats Of Blues [CD2)
DYEAR=2006
DGENRE=Blues
TTITLE0=B.B. King - Everyday I Have The Blues
TTITLE1=Joe Williams And Count Basie - Teach Me Tonight
TTITLE2=Dinah Washington - A Slick Chick
TTITLE3=Sonny Terry And Brownie McGhee - Lonesome Room
TTITLE4=Muddy Waters - Still A Fool
TTITLE5=Erline Harris - Jump And Shout
TTITLE6=Ray Charles - Roll With Me Baby
TTITLE7=Lowell Fulson - Reconsider Baby
TTITLE8=Bessie Smith - Easy Come, Easy Go Blues
TTITLE9=Ray Charles - Sitting On Top Of The World
TTITLE10=Sonny Terry And Brownie McGhee - Man Ain't Nothin' But A Fool
TTITLE11=Arthur Big Boy Crudup - Roberta Blues
TTITLE12=John Lee Hooker - I'm Leaving
TTITLE13=Arthur Big Boy Crudup - Keep Your Arms Around Me
TTITLE14=Joe Williams And Count Basie - Blow Mr. Low
TTITLE15=John Lee Hooker - Hard Headed Woman
TTITLE16=Donna Hightower - I Ain't In The Mood
TTITLE17=Bessie Smith - Baby Won't You Jump With Me
TTITLE18=Ray Charles - The Sun's Gonna Shine Again
TTITLE19=Big Bill Broonzy - W.P.A. Blues
EXTD=
EXTT0=
EXTT1=
EXTT2=
EXTT3=
EXTT4=
EXTT5=
EXTT6=
EXTT7=
EXTT8=
EXTT9=
EXTT10=
EXTT11=
EXTT12=
EXTT13=
EXTT14=
EXTT15=
EXTT16=
EXTT17=
EXTT18=
EXTT19=
PLAYORDER=
